# xmcd
#
# Track frame offsets:
#	150
#	17744
#	28364
#	45918
#	57140
#	73128
#	87087
#	104624
#	119823
#	130973
#	142180
#	155766
#
# Disc length: 2251 seconds
#
# Revision: 1
# Processed by: cddbd v1.5.1PL2 Copyright (c) Steve Scherf et al.
# Submitted via: audiograbber 1.83.01
#
DISCID=b308c90c
DTITLE=Ronny Elliott and the Nationals - Ronny Elliott and the Nationals
DYEAR=1997
DGENRE=
TTITLE0=Billy's First Ex Wife
TTITLE1=(Toulouse Lautrec On A) Bad Night In Paris
TTITLE2=Tell The King The Killer's Here
TTITLE3=I'll Tell What To Do
TTITLE4=Too Hip For The Radio
TTITLE5=Creole Girl With A Spanish Guitar
TTITLE6=Heartbreak Eyes
TTITLE7=Romance Conquers Desire
TTITLE8=Too Lazy To Learn To Dance
TTITLE9=The Likes Of You
TTITLE10=Skid Row Hillbilly
TTITLE11=Enola
EXTD=
EXTT0=
EXTT1=
EXTT2=
EXTT3=
EXTT4=
EXTT5=
EXTT6=
EXTT7=
EXTT8=
EXTT9=
EXTT10=
EXTT11=
PLAYORDER=
